<mxfile host="app.diagrams.net" modified="2021-05-18T04:57:15.448Z" agent="5.0 (Macintosh; Intel Mac OS X 10_15_7) AppleWebKit/537.36 (KHTML, like Gecko) Chrome/90.0.4430.212 Safari/537.36" etag="HsWib4V0eVbv_pf1xf5c" version="14.6.6" type="github">
  <diagram id="A0GOIqkP4W2iI3p_iqKX" name="Page-1">
    <mxGraphModel dx="1638" dy="726" grid="1" gridSize="10" guides="1" tooltips="1" connect="1" arrows="1" fold="1" page="1" pageScale="1" pageWidth="827" pageHeight="1169" math="0" shadow="0">
      <root>
        <mxCell id="0" />
        <mxCell id="1" parent="0" />
        <mxCell id="67xr-fJXILjn_Hdm9Xmc-1" value="" style="shape=image;imageAspect=0;aspect=fixed;verticalLabelPosition=bottom;verticalAlign=top;image=data:image/jpeg,/9j/4AAQSkZJRgABAQEASABIAAD/2wBDAAgGBgcGBQgHBwcJCQgKDBQNDAsLDBkSEw8UHRofHh0aHBwgJC4nICIsIxwcKDcpLDAxNDQ0Hyc5PTgyPC4zNDL/2wBDAQkJCQwLDBgNDRgyIRwhMjIyMjIyMjIyMjIyMjIyMjIyMjIyMjIyMjIyMjIyMjIyMjIyMjIyMjIyMjIyMjIyMjL/wAARCAHIAyoDASIAAhEBAxEB/8QAHwAAAQUBAQEBAQEAAAAAAAAAAAECAwQFBgcICQoL/8QAtRAAAgEDAwIEAwUFBAQAAAF9AQIDAAQRBRIhMUEGE1FhByJxFDKBkaEII0KxwRVS0fAkM2JyggkKFhcYGRolJicoKSo0NTY3ODk6Q0RFRkdISUpTVFVWV1hZWmNkZWZnaGlqc3R1dnd4eXqDhIWGh4iJipKTlJWWl5iZmqKjpKWmp6ipqrKztLW2t7i5usLDxMXGx8jJytLT1NXW19jZ2uHi4+Tl5ufo6erx8vP09fb3+Pn6/8QAHwEAAwEBAQEBAQEBAQAAAAAAAAECAwQFBgcICQoL/8QAtREAAgECBAQDBAcFBAQAAQJ3AAECAxEEBSExBhJBUQdhcRMiMoEIFEKRobHBCSMzUvAVYnLRChYkNOEl8RcYGRomJygpKjU2Nzg5OkNERUZHSElKU1RVVldYWVpjZGVmZ2hpanN0dXZ3eHl6goOEhYaHiImKkpOUlZaXmJmaoqOkpaanqKmqsrO0tba3uLm6wsPExcbHyMnK0tPU1dbX2Nna4uPk5ebn6Onq8vP09fb3+Pn6/9oADAMBAAIRAxEAPwD3+iiigAooooAKKKKACiiigAooooAKKKKACiiigAooooAKKKKACiiigAooooAKKKKACiiigAooooAKKKKACiiigAooooAKKKKACiiigAooooAKKKKACiiigAooooAKKKKACiiigAooooAKKKKACiiigAooooAKKKKACiiigAooooAKKKKACiiigAooooAKKKKACiiigAooooAKKKKACiiigAooooAKKKKACiiigAooooAKKKKACiiigAooooAKKKKACiiigAooooAKKKKACiiigAooooAKKKKACiiigAooooAKKKKACiiigAooooAKKKKACiiigAooooAKKKKACiiigAooooAKKKKACiiigAooooAKKKKACiiigAooooAKKKKACiiigAooooAKKKKACiiigAooooAKKKKACiiigAooooAKKKKACiiigAooooAKKKKACiiigAooooAKKKKACiiigAooooAKKKKACiiigAooooAKKKKACiiigAooooAKKKKACiiigAooooAKKKKACiiigAooooAKKKKACiiigAooooAKKKKACiiigAooooAKKKKACiiigAooooAKKKKACiiigAooooAKKKKACiiigAooooAKKKKACiiigAooooAKKKKACiiigAooooAKKKKACiiigAooooAKKKKACiiigAooooAKKKKACiiigAooooAKKKKACiiigAooooAKKKKACiiigAooooAKKKKACiiigAooooAKKKKACiiigAooooAKKKKACiiigAooooAKKKKACiiigAooooAKKKKACiiigAooooAKKKKACiiigAooooAKKKKACiiigAooooAKKKKACiiigAooooAKKKKACiiigAooooAKKKKACiiigAooooAKKKKACiiigAooooAKKKKACiiigAooooAKKKKACiiigAooooAKKKjkmjhXdJIqL6scCk3bcCSiq0WoWc77IrqCRvRJATVmhST2AKKKKYBRRRQAUUUUAFFFFABRRRQAUUUUAFFFFABRRRQAUUUUAFFFFABRRRQAUUUUAFFFFABRRRQAUUUUAFFFFABRRRQAUUUUAFFFFABRRRQAUUUUAFFFFABRRRQAUUUUAFFFFABRRRQAUUUUAFFFFABRRRQAUUUUAFFFFABRRRQAUUUUAFFFFABRRRQAUUUUAFFFFABRRRQAUUUUAFFFFABRRRQAUUUUAFFFFABRRRQAUUUUAFFFFABRRRQAUUUUAFFFcr4p1swg2Fs2HYfvWHYelY1qsaUOaQm7BrXioQs1vp5VnHDTHkD6etYUGmarrT+cQ7g/8tZWwPw9vpWp4c8OrMq3t6mYzzHGf4vc+1aviDWxpUAgt8faXHy8cIPWvOcJVY+1ruy7Gdr6s5LUtIm0sr5s8DOf4I2JYe+MVo6b4suLO3ENxGbkA/KxfBA/LmqOm6Tea3cM+4hM/PM/PP8AU1Fqliul6o1ucyRrtYZ43D/ORXInUp/vaeiJ1WqO003xHZai4iBaKY9Efv8AQ1s1wut+H1soFvrFmMHBZSeV9CD6Vu+GtXOo2hhmbNxDwT/eHY16lDET5/ZVd/zNFJ3szdoooruLCiiigAooooAKKKKACiiigAooooAKKKKACiiigAooooAKKKKACiiigAooooAKKKKACiiigAooooAKKKKACiiigAooooAKKKKACiiigAooooAKKKKACiiigAooooAKKKKACiiigAooooAKKKKACiiigAooooAKKKKACiiigAooooAKKKKACiiigAooooAKKKKACiiigAooooAKKKKACiiigAooooAKKKKACiiigAooooAKKKKACiiigCnqV6mn2Ety3OwfKPU9hXD6LYPrOrl58sinzJSe/t+NaXjK93TQ2SnhR5j/AF7f1/OtjwzYCz0iNmH7yb9430PQfl/OvMqf7RieT7MTN+9KxqyyJbW7yv8ALHGpY+wFecDz9e1rvvnf/vlf/rCut8W3Rg0fylPzTOF/Dqf5frWR4U+zWgnv7qWOMf6tCzY9z/SpxbVStGk9lqwlq0jr7S1isrZLeFdqIMCuN8ZpjVIX/vQ4/In/ABrWu/GFjDkW6PO3YgbV/M8/pXLatq0urTrJJGiBBhQv+Pelja9J0vZxYSkrWR3NlJA/h+3+0ugiaBVcucA/Lg1xFhejR9ZMsbebEjMhKn76/wCcGs9pHcKHdmCjABOcCm1x1sW58rSs0Q5XOjvfHVzCjTRWcQRP4XYkn8e1dPoutWmuWC3Vq3s6H7yH0NeVan/yD5fw/mKztF1q70O/W6tW9njP3XHoa68Li5vWbuJVGnqe8UVy1t4/0CaJGlungcgEo8THafTIBBq9H4v0CX7upwD/AHsr/MV6aqwfU25l3Nuimo6uiujBlYZBByCPanVoUFFFFABRRRQAUUUUAFFFFABRRRQAUUUUAFFFFABRRRQAUUUUAFFFFABRRRQAUUUUAFFFFABRRRQAUUUUAFFFFABRRRQAUUUUAFFFFABRRRQAUUUUAFFFFABRRRQAUUUUAFFFFABRRRQAUUUUAFFFFABRRRQAUUUUAFFFFABRRRQAUUUUAFFFFABRRRQAUUUUAFFFFABRRRQAUUUUAFFFFABRRRQAUUUUAFFFUr/VLTTEDXMu0t91QMlqmUlFXYi7SE1yF340bkWdrj/alP8AQf41h3euajeZEty4U/wp8o/SuKpmFKOkdSXNIL24jvtckmmfELy8t6IOP5CuiufGVvEuy0tmfAwC/wAo/L/9VcbRXkQxVSF3HqZKTRf1PV7rVXQ3BUKmdqoMAZqhRRWMpym+aT1Fe4UUUVIgooooAp6ocafIPUgfrXPVu6w2LID1cD+dYVdlD4CZbhRRRWxJ7h4UuPtPhXTpPSEJ/wB8/L/StmuS+HVx53hYR/8APGZ0/PDf+zV1texSd4JnZHVIKKKK0KCiiigAooooAKKKKACiiigAooooAKKKKACiiigAooooAKKKKACiiigAooooAKKKKACiiigAooooAKKKKACiiigAooooAKKKKACiiigAooooAKKKKACiiigAooooAKKKKACiiigAooooAKKKKACiiigAooooAKKKKACiiigAooooAKKKKACiiigAooooAKKKKACiiigAooooAKKKKACiiigAooooASuD8Xy79ZCZ4SIDHvkn/Cu8rzjxDJ5uvXbdgwX8gBXnZlK1K3mZ1NjLooorwjEKKK1NM0G91PDxr5cP/PR+n4etVCnKbtFXGk3sZdFd1a+ELCIAztJO3fJ2j8h/jWimh6ZGMCxh/wCBLn+dd8ctqvdpF+zZ5pRXpcmhaXIMNZQj/dXb/KuW8S6RY6YsLWxdXkY/IWyMDr159KitgZ0o87asJwa1OdooorhIM7Wf+PNP+ug/kaw62tab9xEvq2f8/nWLXbR+BEPcKKKK1Eej/C+fMGo22fusjgfUEH+Qr0KvKfhrP5fiCeEnAltz+YI/pmvVq9TDO9NHVSd4hRRRXQaBRRRQAUUUUAFFFFABRRRQAUUUUAFFFFABRRRQAUUUUAFFFFABRRRQAUUUUAFFFFABRRRQAUUUUAFFFFABRRRQAUUUUAFFFFABRRRQAUUUUAFFFFABRRRQAUUUUAFFFFABRRRQAUUUUAFFFFABRRRQAUUUUAFFFFABRRRQAUUUUAFFFFABRRRQAUUUUAFFFFABRRRQAUUUUAFFFFABRRRQAUUUUAIa8svpPO1C5l7PKx/WvT7iXybaWU/wIW/IV5RXkZpLSMTKoFFFS20DXNzFAn3pGCj8a8hJt2RkbnhvQhfv9quV/wBHQ/Kv98/4V3KqEUKoAA4AHao7a3jtbaOCIYRFCipa+lw1CNGFludEY2QtFYGo+KrSxmaGNGnkU4bacKD6ZqinjZS3z2JA/wBmXP8ASlLF0YuzkHMkdZXn3ii8+1azIqn5IR5Y+vf9ePwrpY/FOnS28jh2SRVLCOQYJ9gelcFI7SyPI5y7EsT6muLMMRGUFGDvcictNBtFFFeQZGTrf/LD/gX9KyK1tbPMA9m/pWTXdS+BEPcKKKK0Eb/gq4+z+LbBicB2ZD+KkfzxXtVeA6XP9l1ezuM4EU6OfoGFe+9q9DBv3Wjoo7C0UUV2GwUUUUAFFFFABRRRQAUUUUAFFFFABRRRQAUUUUAFFFFABRRRQAUUUUAFFFFABRRRQAUUUUAFFFFABRRRQAUUUUAFFFFABRRRQAUUUUAFFFFABRRRQAUUUUAFFFFABRRRQAUUUUAFFFFABRRRQAUUUUAFFFFABRRRQAUUUUAFFFFABRRRQAUUUUAFFFFABRRRQAUUUUAFFFFABRRRQAUUUUAFFFFAGdrknlaJeN6xlfz4/rXmld/4sl2aE6/89HVf1z/SuArwszleql5GNTcK2fC8Qk16EkcIGb9P/r1jVseF5hFr0IY4Dhkz+H/1q5MPb2sb9yY7nolRXAc28vl/6zadv1xxUtFfTtXVjoPJGBDEMCGB5BpK7rW/DMd+zXNqRHcHllP3X/wNcVcW01pM0M8bRyL1UivmsRhp0Ze9sc8otEVFFFc5IUUUUAYmst/pMa+iZ/Ws2tHWf+PxP+uY/mazq76fwoze4UUUVYBXv+nXH2vTLW46+bCj/mAa8Ar2vwbcfaPCWnt3VCn/AHySP6V2YN+80bUdzeooor0DoCiiigAooooAKKKKACiiigAooooAKKKKACiiigAooooAKKKKACiiigAooooAKKKKACiiigAooooAKKKKACiiigAooooAKKKKACiiigAooooAKKKKACiiigAooooAKKKKACiiigAooooAKKKKACiiigAooooAKKKKACiiigAooooAKKKKACiiigAooooAKKKKACiiigAooooAKKKKACiiigAooooA5fxrLiztov70hb8h/wDXri66jxrLuvLaL+6hb8z/APWrl6+cx0r12YT3CnRyNDKkiHDoQyn0IptFcidtUQem6VqcWp2SzIQG6On91qv15dp+o3GmXImt29mU9GHvXf6TrFvqsO6L5ZVHzxk8j/61fQYTGRqpRlubxlc0qztV0mDVbcxyjbIPuSAcqf8AD2rRorrnBTXLIo8pu7WWyunt5lw6HB9/eoa7LxlYq9vFeqPnQ7HPqD0/X+dcbXzeJo+yqOJhJWYUUUVgSYOrnN9j0UD/AD+dUKt6n/yEJfw/kKqV6EPhRmwoooqgCvV/htceb4dliJ5iuGAHsQD/AFNeUV6F8L5/n1G3J6hHUfmD/SujCu1RGlJ+8ej0UUV6h1BRRRQAUUUUAFFFFABRRRQAUUUUAFFFFABRRRQAUUUUAFFFFABRRRQAUUUUAFFFFABRRRQAUUUUAFFFFABRRRQAUUUUAFFFFABRRRQAUUUUAFFFFABRRRQAUUUUAFFFFABRRRQAUUUUAFFFFABRRRQAUUUUAFFFFABRRRQAUUUUAFFFFABRRRQAUUUUAFFFFABRRRQAUUUUAFFFFABRRRQAUUUUAef+LJfM111/55oq/wBf61h1oa5L52t3jekhX8uP6Vn18viJc1WT8znluFPlhkh2+YjLuUMuR1B6Gn2lu11eQ269ZHC59K9KutNtL21EE0KsijC+q/Q1rhsI68W09hxjzI8vqxY3ktheR3ERwUbkeo7iugvPBs6MWs51deyycEfiOv6VHYeErtrlGvNiQqcsA2S3txRHCV4zSSDlaZ24OQD60tFFfRm5keJgD4fus+i/+hCvOq7zxdOItG8rPMsgXHsOf6VwdeDmTTq/IxqbhRRRXnmZzupHOoS/h/IVUqe8bdezH/bIqCvQjsjPqFFFFUAV13w5n8rxMYyf9dAy49wQf6GuRra8I3H2bxXp0mesuz/voFf61pSdpplQdpI9vooor2DsCiiigAooooAKKKKACiiigAooooAKKKKACiiigAooooAKKKKACiiigAooooAKKKKACiiigAooooAKKKKACiiigAooooAKKKKACiiigAooooAKKKKACiiigAooooAKKKKACiiigAooooAKKKKACiiigAooooAKKKKACiiigAooooAKKKKACiiigAooooAKKKKACiiigAooooAKKKKACiiigApD0NLVe+l8iwuJf7kbN+QqZOybA8vuZPOupZf77lvzNR0UV8pJ3dzlNjwy9vHrcb3DhMAhCem48f416J2ryOt3S/FF3YqIph9ohHABPzD6GvRwWLjSXJM0hJLRnf0lY9r4n0y5AzN5Lf3ZRj9en61fXULJ1yt3AR6iQV7Ea1OSuma3TLVJnFZ1xrumWykveRsfRDuP6Vy2seJ5b5Gt7VWhgbhmP3mH9BWNbF06S3uxOSRX8Saouo6jtibMEOVU+p7n/PpWNRRXz1Wo6knN9TBu7CiiioEcvdf8fk3/AF0b+dRU+Y7p5G9WJpleiZhRRRTAKns5za31vcDrFIr/AJHNQUULR3BH0QDkA0tUNFuPtWiWM56vAjH67Rmr9e2ndXO1BRRRTGFFFFABRRRQAUUUUAFFFFABRRRQAUUUUAFFFFABRRRQAUUUUAFFFFABRRRQAUUUUAFFFFABRRRQAUUUUAFFFFABRRRQAUUUUAFFFFABRRRQAUUUUAFFFFABRRRQAUUUUAFFFFABRRRQAUUUUAFFFFABRRRQAUUUUAFFFFABRRRQAUUUUAFFFFABRRRQAUUUUAFFFFABRRRQAUUUUAFZ2uiRtFuViRndk2hUGScnFaNJUzjzRaEeTyRSQttljZD6MMfzplesvGjrtdAw9CM1Rm0PTLj79lF9UG0/pXkTyuX2ZGfszzSiu6n8HafJkxPNEewDZH61nTeCp1/1F3G/s6lf8a5p4CvHpcnkZy1Fa83hjVYc/wCjiQDujA//AF6z5rO6t/8AXW8sfuyECueVKpD4kTZogooorMQUUUUAFFFBOAT7U1qwOSooor0DMKKKKYBRRV600bU77BtbC4lU9GWM7fz6U0m9gSvseseBp/tHhGzyfmj3IfwY4/TFdFXMeB9Mv9J0WS21CHynMxdF3BvlIHp7g11FevSvyK52R+FBRRRWhQUUUUAFFFFABRRRQAUUUUAFFFFABRRRQAUUUUAFFFFABRRRQAUUUUAFFFFABRRRQAUUUUAFFFFABRRRQAUUUUAFFFFABRRRQAUUUUAFFFFABRRRQAUUUUAFFFFABRRRQAUUUUAFFFFABRRRQAUUUUAFFFFABRRRQAUUUUAFFFFABRRRQAUUUUAFFFFABRRRQAUUUUAFFFFABRRRQAUUUUAFFFFABRRRQAUYFFFAFSfTLG5yZbSFie5QZ/Os6fwnpcv3I5Ij/sOf65rcpKylQpy3ihWRyc3gkcmC8I9A6Z/UVmzeEtTi5QRTf7j4/niu/ornll9CXSxPIjy+bSdQt8+ZZzADqQuR+YrPuSY7eYkYKoePwr1+oprW3uBieCOUejoG/nXO8sV7xkS6Z4DBa3F0+y3glmf+7GhY/kK27TwTr93gixMSn+KZgmPw6/pXs0cUcSBI0VFHRVGAKfXRHBxW7EqK6nmdp8MblsG81CKP2hQv+px/Kt60+HWiW+DMJ7k/9NJMD/x3FddRW8cPTj0LVOKM600PS7DBtdPt42H8QjG78+taFLRWqSWxVgooopjCiiigAooooAKKKKACiiigAooooAKKKKACiiigAooooAKKKKACiiigAooooAKKKKACiiigAooooAKKKKACiiigAooooAKKKKACiiigAooooAKKKKACiiigAooooAKKKKACiiigAooooAKKKKACiiigAooooAKKKKACiiigAooooAKKKKACiiigAooooAKKKKACiiigAooooAKKKKACiiigAooooAKKKKACiiigAooooAKKKKACiiigAooooAKKKKACiiigAooooAKKKKACiiigAooooAKKKKACiiigAooooAKKKKACiiigAooooAKKKKACiiigAooooAKKKKACiiigAooooAKKKKACiiigAooooAKKKKACiiigAooooAKKKKACiiigAooooAKKKKACiiigAooooAKKKKACiiigAooooAKKKKACiiigAooooAKKKKACiiigAooooAKKKKACiiigAooooAKKKKAIri4htLaW5uJFjhiUu7scBVHJJrnP+FjeDv8AoYrH/v5VT4rah/Z3w31ZgcPMi26++9gD+ma+U6Bo+w9M8YeHtavRZ6bq9tdXBUt5cTZOB1NblfP/AMANP83xBquoFeLe3WIH0Ltn+SGvoCgQUUUUAFFFFABRRRQAUUUUAFFFFABRRRQAUUUUAFFFUNb1JNG0K/1N13LawPNt/vbQTigCe6vrSyUNd3UFup6GWQID+dSRTRzxiSGRJEboyHIP4ivjXW9c1HxDqcuoalcvPPIxPJ4UeijsPau5+C/iK+0/xnBpImdrG+Dq8JOVVgpYMB2PGPxoHY+laKK474h+OYPBOiCVVWXUbjK2sLHjI6s3sMj69KBHRaprWmaJbfaNTv7e0i7NM4XP0Hf8K5Cf4y+CoJCg1GWXH8Udu5H8q+bNX1nUde1CS+1O7kubhzyznoPQDsPYVRoHY+ttA+IfhjxLeLZaZqIe6YErC8bIzYGTjI9BXU18+fAPSvtHiTUNUZSVtbcRqfRnP+Cn86+g6BBRRRQAUUUUAFFFFABRRRQAUUUUAFFFFABRRRQAUUUUAFFFFABRRRQAUUUUAFFFFABRRRQAUUUUAFFFFABRRRQAUUUUAFFFFABRRRQAUUUUAFFFFABRRRQAUUUUAFFFFABRRRQAUUUUAFFFFABRRRQAUUUUAFFFFABRRRQAUUUUAFFFFABRRRQAUUU0sFUsxAAGSSaAHUV5/r/xh8K6HK8EdxJqFwpwVtFDKD6FzgflmuUk/aEhD4i8OyMvq10Afy2GgD2ujFeR6f8AH3RZpAt/pV5ag9XRlkA/ka9S07ULbVdOt7+zkMltcIJI3KlcqenB5FAHlnx+1DyfDemWAbBuLoyEeoRf8XFfPter/HvUPP8AFtjYgkra2u4j/adj/QCvKKQ0fRXwG0/7P4Ou70j5rq7ODj+FQB/MmvVa4DwpqWleB/hbo0ur3UdqjQebhvvOzkvgKOSfmrmdQ/aBsIpiunaHcXCA8PNOIs/gA1MR7LRXlPh/456Lql3HbapZy6YznAlMgkjB9zgEfXFeqKwZQykFSMgg9aAHUUVXvL220+1e6vLiK3t4xl5JWCqo9yaALFFeXaz8c/DdhK0VhBc6iynG9B5aH6Fuf0rBX9oUeZhvDZ2eovOfy2UAe30V594b+MPhnX50tZpJNOuXOFW6xtY+gccfnivQaACiivJpvj3oMM8kf9l6g2xiu4bMHB6/eoA9ZorhPB3xQ03xpq8mnWWn3kDxwmVnm27cAgY4PvUniv4p+HfCsz2skz3l8nDW9tg7D6Mx4H06+1AHb0V4kP2hI/PwfDjCHP3heDd+Wz+tegeEPiJofjIGKxleG8VdzWs4w+PUdmH0/GgDrapatp0Wr6Pe6bMSIrqF4WI6gMCMj86u1zPi/wAcaX4KhtZNSS4f7SzLGsKgn5QM5yR6igD521X4Y+LdL1CS1Gj3F2gYhJ7ZC6OPXjp+NemfCb4ZahoWo/2/rkYgnVCltbZBZc8Fmx044A9zWj/wvjwt/wA+upf9+l/+KrtfCnimy8X6Q2pWEU8cAlaL9+oUkgAnGCeOaBm7Xyh8TvEL+IfHV/KH3W9s5toB2CpwSPqcn8a9b1D45+H7drqCG0v2mj3ojbF2lhkA/e6Zr51Zmd2djlmJJJ7mgES2dpNf3kFpbIZJ53WONR3YnAr6X8NfCHw1pGmRpqNlHqN8ygzTTZK59FXoB+teBeCNYsNA8XWOq6lFLJb2pZ9kQBYttIXqfXB/CvcrH43+H7+/trKCw1Iy3EqxICi9WOB/F70Azt9E8N6R4cSdNIsY7RJ3DyKhOCQMdzxWtXDeJ/inonhPWn0vULe9aZUV90UalSD9SKxv+F8eF/8An11L/v0v/wAVQI9SorP0TVrfXtFtNUtA4guYxIgcYYD3rQoAKK881r4x+G9E1m60yeK9lmtpPLkaKNSu4dQDu7dKoj47+F2IAtNTJPQeUv8A8VQB6jRUVvKZ7aKYxvH5iBtj/eXIzg+9S0AFFFFABRRRQAUUUUAFFFFABRRRQAUUUUAFFFFABRRRQAUUUUAFFFFABRRRQAUUUUAFFFFABRRRQAUUUUAFFFFABRRRQAUUUUAFFFFABRRRQAUUUUAFFFFABRRRQAUUUUAFFFFABRRRQAUUUUAFFFFABRRRQAUUUUAFFFFABXgPxk8f3NxqU3hjTZmjtIPlvHQ4Mr/3M/3R3Hc/Svfq+LNXmludav55ifNkuJHfP94sSaBop1uWfg3xLqFqtzaaFqEsLDKyLA2GHt61X8NXFjaeJtMuNTQPYx3KNOpGRtB5yO9fYtrcQXdrFcW0qSwSKGR4zlWHYg0AfH1p4Z1SXX7LSLmxubWe6nSILNEUPJxnkfWvsG0torKzgtYV2xQRrGi+igYH8qe0UchQuisUO5SRnafUU24nS2tpbiQ4SJC7H0AGaBHyl8TdQOpfEXWZg2Vjm8lfogC/0Jrkx1GRU17dNe39xdP9+eVpD9Sc/wBaLKzn1C+gsrWMyXE8gjjQd2JwP50ii9rGtal4m1FJrlnlZEEUMMYJWNAMBVX04/qazHR43KOrKw6qwwRX1l4I8Dad4N0mOGGNJb91BuLor8zt6A9l9BXmv7QGn2sdxo+oJGq3MwkjkYDBdV2kZ9cZNMR4rX078GdZm1fwDFHO5eSxma2BJ5KgAr+QbH4V8xV9F/AWAx+CbyYj/W3z4+gRB/jQDPQde1yx8OaNcapqEuyCFckDqx7KB3JNfLXjPxzqvjPUWmu5DHZox8i0VvkjHv6t711Xxs8VvqviUaJBIfsencOB0eYjk/gDj868uoBD4oZbiVIoY3kkc4VEGST7Adat3+i6rpaq2oabeWiv903EDRhvpkV9F/CjwJb+G9Bh1O7gVtWvEDszDmFD0QenHX347V22t6Paa7o91pt7EskM8ZU5H3T2I9weaAufGFe+fBTxzPqUUnhvUpjJNBHvtJHOS0Y6ofpxj2z6V4PcQtb3MsLH5o3KHHscV0Xw8vn0/wCIGhzISN12kRx3DnYf/QqQH1VrV2LDQtQvMhfItpJM/RSa+LySTk9TX1d8U78af8N9YfPzSxCBR672Cn9Ca+UaYI3PD/ii88NQal/Z58u6vYRAJwfmiXOW2+5wBntWMFlmLMFdz1YgZ/Ouh8D+E5/GPiWHTUYx24HmXMoH3Ix1x7noPrX1To+g6ZoWnJY6bZxQQKuMKvLe7Hufc0AfGVWtN1C60nUre/spWiubdw8bjsR/P0rvvjT4etNE8YRT2MKQxX0PmtGgwocEhsD34P4mvN6Qz7L8O6xHr/h6w1aIYW6hWQr/AHW7j8DkfhXh3x91DzvFGnWCni3td5Ge7sf6KK9D+C0zy/De1VjkRzyoufTdn+prxL4pagdR+I+ryA5WKQQLg/3FC/zBpiOPr6d8GJ/wjnwXhudp8xbGW7IA5LNuYfzAr5lhieeeOGMZkkYIo9Sa+09PtFsNNtbNPuW8KRL9FAH9KAZ8XSwTpl5YpFyfvMpHP1qKvfvj/qHlaHpOnBuZ7hpSPUIuP/Z68BpAPjhllBMcTuB12rnH5V2Xww0ie8+IujiSCQRwymdiykAbAWH6gV6z8CdP+zeCJ7sj5ru7Y5/2VAUfrur1GmDPAf2gLDy9d0nUAvE1u0LEDujZ/wDZ/wBK8er6K+PNh9o8HWd6Bza3YB9lZSP5ha+daQI+pvhFc/afhppY/wCeXmR/k7f410XifWo/DvhrUNVkxi2hZlB/ifoo/EkCuI+BVz53gKWLPMF7Iv5qrf1rF+PfiHyrKw8Pwv8ANM32mcD+6OFH4nJ/4DTF1PDJ5pLm4lnlYtLIxd2Pdick13Pwk8Mf8JF4zhmmj3Wen4uJcjgsD8i/iefoDXBV9S/Cfwx/wjfguBpk23l9i5mz1AI+VfwGPxJpDO6ooopiCiiigAooooAKKKKACiiigAooooAKKKKACiiigAooooAKKKKACiiigAooooAKKKKACiiigAooooAKKKKACiiigAooooAKKKKACiiigAooooAKKKKACiiigAooooAKKKKACiiigAooooAKKKKACiiigAooooAKKKKACiiigAr5o+Lfga50DX59YtYS2l30hk3qOIZDyVPoCckfl2r6XqG5tYL22ktrqFJoJVKvHIu5WHoRQB8TV1HhLx9rng+4X7DcGWzLZktJTmNvp/dPuK7/AOInwdi0+zuNa8OFvJiBkmsmJO1R1KH29D+favGKQz6/8I+LtO8Y6OL+wYqykLPA5+aJvQ+o9D3qv8RdQ/s34fa1cBgrG2aJT7v8n9a8H+DmsT6Z8QbS2Rj5F8rQSr2PBKnHsR+pr03476j9m8FW9mD813dqCPVVBY/rtpgfOdem/A7Rl1Dxs99KoKafAZFz/fb5R+m4/hXmVe/fADT/AC9C1XUSvM9ysKn2Rc/+z0gZ7DXz/wDH+/EviHSrAH/UWxlYe7tgf+gV9AV8q/FnUP7Q+JGqEHKwFYF5/uqM/rmmCOKr6k+GsKaF8KrG4lGAIJLt8+hJb+WK+XY42llSNBl3IUD1Jr61120/sz4Y6hZQj/j20l4hj0WIj+lAM+T727lv7+4vJjmWeVpHPuTk/wA61/BOkrrnjTSdPcZiluFMg9UX5m/QEVg13/wYCH4l2O7r5U2367D/APXpAfT4AAwOlR3Ey21tLO5AWNC5J7ADNS1w/wAV9fTQvAV6A+Li9H2WEZ5O77x/Bc0xHy7czG4uppiOZHL/AJnNbngS2a78e6FEo5+3RP8AgrBv6Vz1en/A3RG1Dxm+pMn7jT4S2SP42+VR+W4/hSKO2+PmoeR4V0+xB5ubreR6hFP9WFfPVetfH3UPP8UadYBsi2tS5Hoztz+irXktAkfQvwF0dLbwze6syjzbu48sH/YQf4lvyr1quT+Gdh/Z3w60WErhng85v+Bkt/WunuLiK1tpbidxHDEhd3Y8KoGSTTEfPXx6vVn8Y2dqpybezG72LMT/ACxXlVbXi3XW8SeKtQ1ZshJ5SYwf4UHCj8gKzbCym1HULaxtkLz3EixIo7sTgfzpFH0z8JoBpnwvsJpjtVxLcMT2Xcf6CvmfULtr/Urq8f71xM8rfViSf519S+KvL8K/Cq+ghYKtrp4tkPuQIx+pr5RpiR0vw+0/+1PH+i2pXcv2lZGHsnzn/wBBr66r5w+BOn/afHE14R8tpaswPozEL/LdX0fQDPnP48ah9o8Z2tmD8traDI/2mJJ/TbXlldT8SNQ/tL4h61OGyq3BhX6J8n/stc7Y2rXuoW1ogy88qxgD1Jx/WkB9YfDvTzpnw/0S3K4Y2yysMd3+f/2auoqK3hW2tooEGEjQIv0AxUtMRyfxL0/+0vh3rUIXcyQecoHqhDf0r5Mr7YvbZL2xuLWT7k8bRt9CMH+dfFdxA9tcywSDDxOUYehBx/SgaPdf2frnOk63bE8Rzxyf99KR/wCy15T4718+JPGeo6iG3QmTy4P+ua8Lj64z+NaXgnxGfD3h7xWyy7Jrm0SKEA8l2bbkfQMT+FcVQB13w18MHxT4ztLaWPdZwH7Rc5HGxex+pwPxr6wxjpXm/wAGPDH9ieERqM8eLvUyJTkcrF/APxyW/EV6TQIKKKKACiiigAooooAKKKKACiiigAooooAKKKKACiiigAooooAKKKKACiiigAooooAKKKKACiiigAooooAKKKKACiiigAooooAKKKKACiiigAooooAKKKKACiiigAooooAKKKKACiiigAooooAKKKKACiiigAooooAKKKKACiiigDjPiJ46HgbTbK4S2S5muZ9giZtuUAyxB/IfjWVpPxt8J38a/a5LnT5T1WaIso+jLn+lcb8b9I8Rah4gguo9Nnl0q3gCRSwrvAYnLEgcjsOfSvGiCDgjBHUGkM+kPFnxg8M2+hXcOl3Rv7yaJo41SNgqkjGWLAcD0r5vorqPDXw+8ReKJ0FnYSRWxPzXU4KRqPUE9fwzQBt/BfR5dS+IEF2FPkWEbTSN2yQVUfmc/hW/+0BqHma1pGnBuIbdpmH+82B/6Aa9Z8F+DrHwXoosbQmWaQh7i4YYMrf0A7Cvn/4t3cmo/EfUiqOUtwkC4H91Rn9SaYdThK+qPhLp/wDZ/wAN9LBGGnDTn/gTHH6Yr5cW2nd1RYnLMcAbepr7M0eyXTdFsbFRhba3jiH/AAFQP6UAy47rGjO5wqjJJ7Cvi/WL1tS1q+vmPzXFxJL/AN9MTX1p41vzpvgnWbtfvpaOE/3iNo/UivkHyZf+eb/980Ajd8C6f/anjrRbQjKtdIzD/ZU7j+gNfW99aJf6fc2cv+ruImib6MCD/OvnX4IaY9x4++1PGQtpbPICR0LYX+pr6SoBnxVqenz6Tql1p90pWe2laJwR3BxVjQNauPD2vWerWoBltpA4U9GHcH6gkV718Ufhe3idjrOjBF1VVCyxE4FwB057MPfrXz7qGm32lXTWt/aTW069UlQqf1pAfRsHxt8ISaeLiWW6in25Nt5BLZ9AR8p+ua8T8e+N7vxvrQuXQw2cIK21vnOwHqT6seK5StjQvCut+JbhYtK06afJwZAMRr9WPAoAy7e3mu7mO2t4mlmlYJHGgyWY9ABX1f8ADzwivg7wtDZOFN7MfOunHOXPYewGB+Z71jfD34WWfhDbqF86XerleHA+SH2T39/5V6DNKsEEkrnCopYn2FMD5U+KWoHUfiPrDhspDIIF9tgCn9Qa4+rOo3bX+p3V4xO6eZ5Tn1Yk1FDbzXMmyCKSV8FtqKWOB1OBSGfSHh/4veDjolrDNdS2LwQrGYZYmONoxwVBB6VwHxJ+LI8SWjaPoiyxacx/fzuNrTf7IHZf1Pt38qqSC3muplht4ZJZWOFSNSzH8B1piI69n+CPgmSW6/4Sm/iIhjylkrD77dC/0HIHvn0qr4F+C99fzxX/AImja0slIYWmcSy/72PuD9fpXvsEEVrbx28EaxQxqEREGAqjoAKAPNfjrqH2bwNFaA4a7ukUj1VQW/mFr5vr2j4/3jzano+nIGIiheZgB3YgD/0E/nXjXky/883/AO+aQI94/Z/0/ZpGr6ky8zTpCp9lGT/6GPyr128uFtLKe5c4SGNpG+gGa434RacdP+HGnblKvcF52BHqxx+gFXviTfnT/h5rUq53yW5hXHq52/yJpiPlG6na6u57l/vyuzt9Sc/1rqPhjp/9pfEbRoiuVjm89vbYC38wK5TyZf8Anm//AHzXq3wG0xpfFt9fSRsBbWm1SR/E7D+gakM+hqKKKYgr5G+Ien/2b8QNatwu1ftJkUez/OP519c18yfGx7V/iLMbaQO4t41nx/C+Dx/3ztoY0ed10fgbw0/ivxZZ6bg/Z93mXLD+GJev59Pqa5yvpX4N+ED4f8M/2ndR7b7UgHwRykX8I/H734j0pAejxxpDEkcahUQBVUdABT6KKYgooooAKKKKACiiigAooooAKKKKACiiigAooooAKKKKACiiigAooooAKKKKACiiigAooooAKKKKACiiigAooooAKKKKACiiigAooooAKKKKACiiigAooooAKKKKACiiigAooooAKKKKACiiigAooooAKKKKACiiigAooooAKKKKACqN1oul3zbrvTLO4b1lgVz+oq9RQBm2/h/RbRw9tpFhC46NHbIp/MCtLoMCiigApuxT1UflTqKAG7F/uj8qdRRQAhAIwRSbF/uj8qdRQAgUDoAPpS0UUAFV7qxtL6Py7u1guE/uzRhx+RqxRQBjp4V8PRSb00LTVb1Fqn+FaqRpGgSNFRR0VRgCn0UAFc18QNQOmeAdauQcN9leNT7v8o/nXS15h8ddQFr4FitAfmu7tFx/sqCx/ULQB8316n8B9P8AtPjW5vGGVtLRsH0ZiAP03V5ZXvn7P+n+Xo2r6iV/106wg/7q5P8A6HSGz0+68OaHeyGS60awmkJyXktkJP44qxZ6Xp+nAixsLa1B6+REqZ/IVcopiCiiigBCqnqAfrSbF/uj8qdRQAgGOBQQCMEUtFADdi/3R+VKFA6AD6UtFABRRXjHxt8ReJNFu7O1sL97bTbyFs+SNrlwfmG/rjBXpQB0fxC+KNj4VtpbHT5I7rWWG0Ip3LAf7z+/+z+dfNNzczXl1Lc3MrSzSsXkkY5LMepNRsxZizEknkk963fCfhPUfF+spYWCYUYM07D5YV9T/Qd6QzoPhX4IbxZ4hFzdR50qyYPMSOJG7J/U+31r6gAAAAGAKy/DugWPhnRLfS9Pj2wxDlj9527s3qTWrTEFFFFABRRRQAUUUUAFFFFABRRRQAUUUUAFFFFABRRRQAUUUUAFFFFABRRRQAUUUUAFFFFABRRRQAUUUUAFFFFABRRRQAUUUUAFFFFABRRRQAUUUUAFFFFABRRRQAUUUUAFFFFABRRRQAUUUUAFFFFABRRRQAUUUUAFFFFABRRRQAUUUUAFFFFABRRRQAUUUUAFFFFABRRRQAUUUUAFFFFABRRRQAVwXxG8AXfjr+z0h1OOzitd5KvEX3M2OeCPSu9ooA8H/wCGfLz/AKGGD/wGP/xVep+BvCv/AAh3hmLSWuFuJFkeR5VTaGJPpn0wPwrpaKACiiigAooooAKKKKACiiigAooooAK4D4u+Gp/EXgw/Yrd7i9tJllijjUszA/KwAHsc/hXf0UAfOnhf4Ia1qUiT644021zkxghpmHsBwv1P5V7toPh7TPDWmpYaVarBCvJxyzn1Y9Sa1aKACiiigAooooAKKKKACiiigAooooAKKKKACiiigAooooAKKKKACiiigAooooAKKKKACiiigAooooAKKKKACiiigAooooAKKKKACiiigAooooAKKKKACiiigAooooAKKKKACiiigAooooAKKKKACiiigAooooAKKKKACiiigAooooAKKKKACiiigAooooAKKKKACiiigAooooAKKKKACiiigAooooAKKKKACiiigAooooAKKKKACiiigAooooAKKKKACiiigAooooAKKKKACiiigAooooAKKKKACiiigAooooAKKKKACiiigAooooAKKKKACiiigAooooAKKKKACiiigAooooAKKKKACiiigAooooAKKKKACiiigAooooAKKKKACiiigAooooAKKKKACiiigAooooAKKKKACiiigAooooAKKKKACiiigAooooAKKKKACiiigAooooAKKKKACiiigAooooAKKKKACiiigAooooAKKKKACiiigAooooAKKKKACiiigAooooAKKKKACiiigAooooAKKKKACiiigAooooAKKKKACiiigAooooAKKKKACiiigAooooAKKKKACiiigAooooAKKKKACiiigAooooAKKKKACiiigAooooAKKKKACiiigAooooAKKKKACiiigAooooAKKKKACiiigAooooAKKKKACiiigAooooAKKKKACiiigAooooAKKKKACiiigAooooAKKKKACiiigAooooAKKKKACiiigAooooAKKKKACiiigAooooAKKKKACiiigAooooAKKKKACiiigAooooAKKKKACiiigAooooAKKKKACiiigAooooAKKKKACiiigAooooAKKKKACiiigAooooAKKKKACiiigAooooAKKKKACiiigAooooAKKKKACiiigAooooAKKKKACiiigAooooAKKKKACiiigAooooAKKKKACiiigAooooAKKKKACiiigAooooAKKKKACiiigAooooAKKKKACiiigAooooAKKKKACiiigAooooAKKKKACiiigAooooAKKKKACiiigAooooAKKKKACiiigAooooAKKKKACiiigAooooAKKKKACiiigAooooAKKKKACiiigAooooAKKKKACiiigAooooAKKKKACiiigAooooAKKKKACiiigAooooAKKKKACiiigAooooAKKKKACiiigAooooAKKKKACiiigAooooAKKKKACiiigAooooAKKKKACiiigAooooAKKKKACiiigAooooAKKKKACiiigAooooAKKKKACiiigAooooAKKKKACiiigAooooAKKKKACiiigAooooAKKKKACiiigAooooAKKKKACiiigAooooAKKKKACiiigAooooAKKKKACiiigAooooAKKKKACiiigAooooAKKKKACiiigAooooAKKKKACiiigAooooAKKKKACiiigAooooAKKKKACiiigAooooAKKKKACiiigAooooAKKKKACiiigAooooAKKKKACiiigAooooAKKKKACiiigAooooAKKKKACiiigAooooAKKKKACiiigAooooAKKKKACiiigAooooAKKKKACiiigAooooAKKKKACiiigAooooAKKKKACiiigAooooAKKKKACiiigAooooAKKKKACiiigAooooAKKKKACiiigAooooAKKKKACiiigAooooAKKKKACiiigAooooAKKKKACiiigD//2Q==;" vertex="1" parent="1">
          <mxGeometry x="150" y="50" width="159.73" height="90" as="geometry" />
        </mxCell>
        <mxCell id="67xr-fJXILjn_Hdm9Xmc-2" value="shop-name.myshoppify.com" style="rounded=1;whiteSpace=wrap;html=1;fillColor=#ffe6cc;strokeColor=#d79b00;" vertex="1" parent="1">
          <mxGeometry x="470" y="470" width="276" height="60" as="geometry" />
        </mxCell>
        <mxCell id="67xr-fJXILjn_Hdm9Xmc-3" value="FE APP (embeded in admin shopify)" style="rounded=1;whiteSpace=wrap;html=1;fillColor=#d5e8d4;strokeColor=#82b366;" vertex="1" parent="1">
          <mxGeometry x="130" y="470" width="276" height="60" as="geometry" />
        </mxCell>
        <mxCell id="67xr-fJXILjn_Hdm9Xmc-4" value="S1&lt;br&gt;APP, API, DB" style="shape=cylinder3;whiteSpace=wrap;html=1;boundedLbl=1;backgroundOutline=1;size=15;fillColor=#e1d5e7;strokeColor=#9673a6;" vertex="1" parent="1">
          <mxGeometry x="150" y="220" width="80" height="90" as="geometry" />
        </mxCell>
        <mxCell id="67xr-fJXILjn_Hdm9Xmc-5" value="S2&lt;br&gt;Search ES" style="shape=cylinder3;whiteSpace=wrap;html=1;boundedLbl=1;backgroundOutline=1;size=15;fillColor=#dae8fc;strokeColor=#6c8ebf;" vertex="1" parent="1">
          <mxGeometry x="524" y="210" width="70" height="90" as="geometry" />
        </mxCell>
        <mxCell id="67xr-fJXILjn_Hdm9Xmc-6" value="" style="endArrow=classic;html=1;exitX=1;exitY=0.5;exitDx=0;exitDy=0;entryX=0.145;entryY=0;entryDx=0;entryDy=4.35;entryPerimeter=0;" edge="1" parent="1" source="67xr-fJXILjn_Hdm9Xmc-1" target="67xr-fJXILjn_Hdm9Xmc-5">
          <mxGeometry relative="1" as="geometry">
            <mxPoint x="470" y="340" as="sourcePoint" />
            <mxPoint x="570" y="340" as="targetPoint" />
          </mxGeometry>
        </mxCell>
        <mxCell id="67xr-fJXILjn_Hdm9Xmc-7" value="Product sync &amp;amp; map" style="edgeLabel;resizable=0;html=1;align=center;verticalAlign=middle;" connectable="0" vertex="1" parent="67xr-fJXILjn_Hdm9Xmc-6">
          <mxGeometry relative="1" as="geometry" />
        </mxCell>
        <mxCell id="67xr-fJXILjn_Hdm9Xmc-8" value="" style="endArrow=classic;html=1;exitX=0.25;exitY=1;exitDx=0;exitDy=0;entryX=0.5;entryY=0;entryDx=0;entryDy=0;entryPerimeter=0;" edge="1" parent="1" source="67xr-fJXILjn_Hdm9Xmc-1" target="67xr-fJXILjn_Hdm9Xmc-4">
          <mxGeometry relative="1" as="geometry">
            <mxPoint x="470" y="340" as="sourcePoint" />
            <mxPoint x="570" y="340" as="targetPoint" />
          </mxGeometry>
        </mxCell>
        <mxCell id="67xr-fJXILjn_Hdm9Xmc-9" value="Tags, Vendors, Types, Meta" style="edgeLabel;resizable=0;html=1;align=center;verticalAlign=middle;" connectable="0" vertex="1" parent="67xr-fJXILjn_Hdm9Xmc-8">
          <mxGeometry relative="1" as="geometry" />
        </mxCell>
        <mxCell id="67xr-fJXILjn_Hdm9Xmc-10" value="" style="endArrow=classic;html=1;exitX=0.5;exitY=0;exitDx=0;exitDy=0;entryX=0.5;entryY=1;entryDx=0;entryDy=0;entryPerimeter=0;" edge="1" parent="1" source="67xr-fJXILjn_Hdm9Xmc-3" target="67xr-fJXILjn_Hdm9Xmc-4">
          <mxGeometry width="50" height="50" relative="1" as="geometry">
            <mxPoint x="500" y="360" as="sourcePoint" />
            <mxPoint x="550" y="310" as="targetPoint" />
          </mxGeometry>
        </mxCell>
        <mxCell id="67xr-fJXILjn_Hdm9Xmc-12" value="" style="endArrow=classic;html=1;entryX=0.855;entryY=1;entryDx=0;entryDy=-4.35;entryPerimeter=0;exitX=0.5;exitY=0;exitDx=0;exitDy=0;" edge="1" parent="1" source="67xr-fJXILjn_Hdm9Xmc-2" target="67xr-fJXILjn_Hdm9Xmc-4">
          <mxGeometry relative="1" as="geometry">
            <mxPoint x="470" y="340" as="sourcePoint" />
            <mxPoint x="570" y="340" as="targetPoint" />
          </mxGeometry>
        </mxCell>
        <mxCell id="67xr-fJXILjn_Hdm9Xmc-13" value="Get filter tree" style="edgeLabel;resizable=0;html=1;align=center;verticalAlign=middle;" connectable="0" vertex="1" parent="67xr-fJXILjn_Hdm9Xmc-12">
          <mxGeometry relative="1" as="geometry" />
        </mxCell>
        <mxCell id="67xr-fJXILjn_Hdm9Xmc-14" value="S" style="endArrow=classic;html=1;entryX=0.855;entryY=1;entryDx=0;entryDy=-4.35;entryPerimeter=0;" edge="1" parent="1" target="67xr-fJXILjn_Hdm9Xmc-5">
          <mxGeometry relative="1" as="geometry">
            <mxPoint x="610" y="470" as="sourcePoint" />
            <mxPoint x="570" y="340" as="targetPoint" />
          </mxGeometry>
        </mxCell>
        <mxCell id="67xr-fJXILjn_Hdm9Xmc-15" value="Search" style="edgeLabel;resizable=0;html=1;align=center;verticalAlign=middle;" connectable="0" vertex="1" parent="67xr-fJXILjn_Hdm9Xmc-14">
          <mxGeometry relative="1" as="geometry" />
        </mxCell>
      </root>
    </mxGraphModel>
  </diagram>
</mxfile>
